<?xml version="1.0" encoding="UTF-8" standalone="no"?>
<svg
xmlns:dc="http://purl.org/dc/elements/1.1/"
xmlns:cc="http://creativecommons.org/ns#"
xmlns:rdf="http://www.w3.org/1999/02/22-rdf-syntax-ns#"
xmlns:svg="http://www.w3.org/2000/svg"
xmlns="http://www.w3.org/2000/svg"
viewBox="0 0 1496 1496"
xml:space="preserve"
id="svg2"
version="1.1"><metadata
id="metadata8"><rdf:RDF><cc:Work
rdf:about=""><dc:format>image/svg+xml</dc:format><dc:type
rdf:resource="http://purl.org/dc/dcmitype/StillImage" /></cc:Work></rdf:RDF></metadata><defs
id="defs6" />
<style>
  @keyframes tail-wagging {
    from {transform: translate(-400px);}
    to {transform: translate(100px,-200px);}
  }

  .tail {
    animation: 100ms tail-wagging infinite alternate linear;
  }
</style><g
transform="matrix(1.3333333,0,0,-1.3333333,0,1496)"
id="g10"><g
transform="scale(0.1)"
id="g12"><path
id="background"
style="fill:#F6F6F6;fill-opacity:1;fill-rule:nonzero;stroke:none"
d="M 11220,0 H 0 V 11220 H 11220 V 0" /><path
id="leg"
style="fill:#e26b47;fill-opacity:1;fill-rule:nonzero;stroke:none"
d="m 7289.73,3706.14 c 0,0 -86.04,-1137.41 -253.8,-1443.08 -10.41,-18.96 -193.27,-49.38 -174.32,28.13 18.95,77.51 135.42,10.38 124.84,184.49 -10.57,174.12 38.72,933.96 -78.94,1233.32 l 382.22,-2.86" /><path
id="tail"
class="tail"
d="m 7804.75,4613.05 c 26.46,28.46 84.04,34.97 119.33,49.59 49.01,20.3 96.3,45.12 139.98,75.28 111.1,76.67 198.68,192.99 215.31,329.59 15.62,128.3 52.25,264.39 137.33,364.59 l 1.58,1.32 0.71,0.88 c 48.74,43.2 133.86,50.79 193.33,29.45 85.28,-30.6 118.68,-112.33 127.54,-196.65 14.63,-139.42 -29.16,-278.35 -114.14,-389.01 -144.57,-188.26 -377.59,-290.5 -598.98,-356.27 -59.79,-17.76 -141.41,-57.97 -199.88,-19.4 -36.89,24.33 -55.26,74.97 -22.11,110.63" /><path
id="path20"
style="fill:#000000;fill-opacity:1;fill-rule:nonzero;stroke:none"
d="m 4062.33,9109.2 c 47.9,-21.13 91.25,-57.15 129.5,-92.03 105.4,-96.09 184.16,-216.75 245.38,-344.76 5.37,-11.24 -38.11,-32.46 -43.49,-21.21 -61.66,128.94 -141.31,251.97 -248.75,347.63 -36.38,32.4 -77.49,65.88 -122.54,85.75 -9.12,4.03 27,30.3 39.9,24.62" /><path
id="path22"
style="fill:#000000;fill-opacity:1;fill-rule:nonzero;stroke:none"
d="m 3961.44,9022.22 c 160.03,-73.19 331.49,-201.88 387.63,-374.58 7.95,-24.47 -33.42,-46.87 -42.5,-18.92 -52.45,161.35 -217.51,282.53 -366.79,350.79 -25.39,11.61 -1.9,53.48 21.66,42.71" /><path
id="path24"
style="fill:#000000;fill-opacity:1;fill-rule:nonzero;stroke:none"
d="m 3932.45,8898.6 c 118.86,-47.23 311.87,-143.78 320.36,-289.64 0.73,-12.6 -43.18,-24.29 -43.34,-21.51 -8.47,145.65 -198.75,240.52 -317.45,287.69 -3.68,1.46 28.87,28.05 40.43,23.46" /><path
id="path26"
style="fill:#000000;fill-opacity:1;fill-rule:nonzero;stroke:none"
d="m 3890.53,8810.6 c 92.26,-25.63 291.85,-88.17 280.65,-211.97 -1.27,-14.13 -32.49,-48.81 -30.14,-22.86 6.47,71.68 -87.35,117.34 -140.96,142.58 -42.35,19.95 -86.79,36.82 -131.93,49.36 -13.47,3.74 5.72,47.52 22.38,42.89" /><path
id="path28"
style="fill:#000000;fill-opacity:1;fill-rule:nonzero;stroke:none"
d="m 3827.1,8717.84 c 87,-10.76 256.44,-42.95 271.35,-150 2.88,-20.69 -43.07,-34.83 -45.71,-15.86 -13.62,97.79 -171.1,124.74 -251.02,134.63 -27.97,3.46 6.9,33.52 25.38,31.23" /><path
id="path30"
style="fill:#e26b47;fill-opacity:1;fill-rule:nonzero;stroke:none"
d="m 7463.22,4776.26 c 0,0 752.39,42.48 643.98,-940.75 -0.31,-2.78 -0.78,-5.56 -1.39,-8.28 L 7729.99,2165.79 c -9.7,-42.87 -55.55,-67.2 -96.19,-50.47 l -2.02,0.84 c -67.88,28.68 -9.88,38.65 28.18,164.64 38.05,125.99 61.28,1248.56 -65.1,1364.02 -126.4,115.46 -442.95,-418.37 -1285.21,-335.64 -557.39,54.76 -839.67,174.5 -966.85,249.23 -43.66,25.66 -99.4,-0.47 -107.02,-50.53 L 5037.41,2334.99 c -3.03,-19.88 -9.18,-96.81 -28.38,-125.94 -21.35,-32.39 -87.39,-93.11 -144.99,-29.78 -87.58,96.31 86.54,106.89 76.41,193.92 -10.13,87.03 109.52,1277.84 12.26,1374.1 -97.27,96.25 -310.99,259.64 -339.41,143.38 -28.43,-116.26 -59.84,-1529.16 -59.79,-1538.83 0.05,-9.68 -126,-188.62 -183.14,-136.42 -126.39,115.47 47.97,77.67 47.53,164.75 -0.45,87.08 -127.31,2166.82 -127.31,2166.82 0,0 -135.84,1944.23 -156.14,2127.97 -17.05,154.36 -145.84,786.15 -186.59,984.29 -7.03,34.17 -37.69,58.22 -72.56,56.85 -263.41,-10.35 -1304.12,-27.48 -1373.62,343.81 0,0 -39.25,106.23 67.09,126.13 106.33,19.91 890.29,-14.75 1044.71,63.46 154.41,78.21 674.57,535.68 820.06,468.7 145.49,-66.98 451.16,-234.74 366.77,-757.69 -82.27,-509.88 18.01,-2527.33 23.07,-2627.93 0.13,-2.39 0.14,-4.73 0.02,-7.13 -2.42,-48.89 -19.1,-635.5 574.37,-632.43 619.26,3.2 2065.45,83.24 2065.45,83.24" /><path
id="path32"
style="fill:#000000;fill-opacity:1;fill-rule:nonzero;stroke:none"
d="m 4274.92,8026.59 c 36.12,108.1 101.32,211.06 217.61,241.61 26.2,6.88 52.74,9.63 79.76,9.61 1.15,-0.01 2.03,-0.08 2.84,-0.17 l 1.81,0.21 c 69.91,3.12 123.96,-70.37 153.85,-123.6 57.48,-102.39 82.85,-222.53 100.51,-337.39 21.78,-141.7 29.67,-285.35 33.97,-428.51 5.99,-199.46 10.29,-389.59 121.39,-563.02 75.31,-117.55 184.45,-206.38 262.44,-321.15 58.46,-86.02 105.98,-198.71 72.09,-303.25 -67.5,-208.29 -358.64,-173.38 -513.15,-109.38 -76.49,31.68 -141.64,70.38 -196.81,132.12 -48.26,54.01 -87.39,115.97 -121.41,179.7 -87.75,164.35 -145.24,345.05 -188.07,525.8 -46.75,197.34 -75.72,399.92 -81.69,602.74 -4.85,164.57 2.23,337.22 54.86,494.68" /><path
id="eyes"
style="fill:#000000;fill-opacity:1;fill-rule:nonzero;stroke:none"
d="m 4173.89,8355.91 c 43.67,2.12 49.05,-79.62 49.15,-107.44 0.11,-30.09 -4.02,-107.15 -47.51,-109.26 -43.96,-2.13 -48.56,79.95 -49.15,107.44 0.34,30.06 3.76,107.14 47.51,109.26" /><path
id="path36"
style="fill:#000000;fill-opacity:1;fill-rule:nonzero;stroke:none"
d="m 2486.65,8138.68 c 40.61,67.29 170.04,62.79 234.57,63.3 101.2,18.32 224.61,31.51 321.84,-7.66 47.06,-18.96 67.97,-47.4 79.02,-95.19 13.56,-58.6 26.88,-116.01 26.26,-176.72 -0.64,-62.34 -15.75,-133.97 -77,-163.91 -61.95,-30.29 -145.24,-14.68 -208.81,1.16 -138.78,34.56 -349.29,127.31 -380.61,285.98 -4.64,23.53 -9.09,70.15 4.73,93.04" /><path
id="path38"
style="fill:#eec130;fill-opacity:1;fill-rule:nonzero;stroke:none"
d="m 3952.92,5876.44 c 77.33,16.52 154.65,33.05 231.98,49.58 2.56,0.54 14.76,-1.31 21.28,-4.47 194.81,1.01 389.62,2.01 584.43,3.02 7.86,0.04 38.12,-9.68 30.51,-23.22 -43.71,-77.92 -113.63,-150.8 -195.41,-187.91 -173.49,-78.73 -333.7,43.26 -439.63,174.19 -27.42,-32.74 -54.84,-65.49 -82.26,-98.24 -2.97,-3.55 -15.77,-0.37 -22.58,3.69 l -1.37,0.64 c -42.07,25.58 -84.13,51.17 -126.19,76.76 -2.46,1.49 -5.2,5 -0.76,5.96" /></g></g></svg>
